<?xml version="1.0" encoding="utf-8"?>
<?xml-stylesheet type="text/xsl" href="rss1.xsl"?>
<rss version="2.0" xmlns:atom="http://www.w3.org/2005/Atom" xmlns:content="http://purl.org/rss/1.0/modules/content/" xmlns:dc="http://purl.org/dc/elements/1.1/" xmlns:media="http://search.yahoo.com/mrss/">
<channel>
 <title>Getty</title>
 <link>http://www.gettyimg.com/</link>
 <atom:link href="http://www.gettyimg.com/" rel="self" type="application/rss+xml" />

 
                <item>
                <title><![CDATA[【Requests】[REQ AUD] - Sounds Of The 80s (Album x3) (Qobuz 44.1kHz FLAC)]]></title>
                <link><![CDATA[https://sharemania.us/threads/sounds-of-the-80s-album-x3-qobuz-44-1khz-flac.243633/]]></link>
                <description><![CDATA[<article>
<blockquote class="messageText SelectQuoteContainer ugc baseHtml">
Hi.<br>
<br>
I can't seem to find these anywhere else. Can someone please rip them into FLAC for me?<br>
<br>
1) <a href="https://www.qobuz.com/gb-en/album/sounds-of-the-80s-dont-you-want-me-1980-1983-various-artists/cughm6enu5xoc" target="_blank" class="externalLink" rel="nofollow">https://www.qobuz.com/gb-en/album/s...nt-me-1980-1983-various-artists/cughm6enu5xoc</a><br>
2) <a href="https://www.qobuz.com/gb-en/album/sounds-of-the-80s-like-a-record-baby-1984-1986-various-artists/a6yyyoy0e6qdb" target="_blank" class="externalLink" rel="nofollow">https://www.qobuz.com/gb-en/album/s...-baby-1984-1986-various-artists/a6yyyoy0e6qdb</a><br>
3) <a href="https://www.qobuz.com/gb-en/album/sounds-of-the-80s-i-think-were-alone-now-1987-1989-various-artists/a010rde9q3vwc" target="_blank" class="externalLink" rel="nofollow">https://www.qobuz.com/gb-en/album/s...e-now-1987-1989-various-artists/a010rde9q3vwc</a><br>
<br>
Please <img src="styles/default/xenforo/clear.png" class="mceSmilieSprite mceSmilie56" alt=":innocent:" title="Innocent    :innocent:"><br>
<br>
Thanks a lot in advance.
<div class="messageTextEndMarker">&nbsp;</div>
</blockquote>
</article>]]></description>
                <author><![CDATA[OrangeGround35]]></author>
                </item>

                
                <item>
                <title><![CDATA[【PRORES HD】Charlie Puth Cheating on You Director's Cut MASTER ProRes 858p PCM2.0]]></title>
                <link><![CDATA[https://sharemania.us/threads/charlie-puth-cheating-on-you-directors-cut-master-prores-858p-pcm2-0.243631/]]></link>
                <description><![CDATA[<article>
<blockquote class="messageText SelectQuoteContainer ugc baseHtml">
<div style="text-align: center"><img src="https://i.ibb.co/ng6Yds6/Charlie-Puth-Cheating-on-You-Director-s-Cut-MASTER-Pro-Res-858p-PCM2-0-mov.jpg" class="bbCodeImage LbImage" alt="[​IMG]" data-url="https://i.ibb.co/ng6Yds6/Charlie-Puth-Cheating-on-You-Director-s-Cut-MASTER-Pro-Res-858p-PCM2-0-mov.jpg" style=""> <br>
<br>
<br>
<div class="ToggleTriggerAnchor bbCodeSpoilerContainer">
<button type="button" class="button bbCodeSpoilerButton ToggleTrigger Tooltip JsOnly" data-target="> .SpoilerTarget"><span>Spoiler: <span class="SpoilerTitle">MediaInfo</span></span></button>
<div class="SpoilerTarget bbCodeSpoilerText"><b>General</b><br>
Complete name : Charlie Puth Cheating on You Director's Cut MASTER ProRes 858p PCM2.0.mov<br>
Format : MPEG-4<br>
Format profile : QuickTime<br>
Codec ID : qt 2005.03 (qt )<br>
File size : 4.21 GiB<br>
Duration : 3 min 25 s<br>
Overall bit rate mode : Variable<br>
Overall bit rate : 176 Mb/s<br>
Frame rate : 23.976 FPS<br>
Encoded date : 2019-11-16 19:25:28 UTC<br>
Tagged date : 2019-11-16 19:27:28 UTC<br>
Writing library : Apple QuickTime<br>
TIM : 00:00:00:00<br>
TSC : 24000<br>
TSZ : 1001<br>
<br>
<b>Video</b><br>
ID : 1<br>
Format : ProRes<br>
Format version : Version 0<br>
Format profile : 422 HQ<br>
Codec ID : apch<br>
Duration : 3 min 25 s<br>
Bit rate mode : Variable<br>
Bit rate : 175 Mb/s<br>
Width : 2 048 pixels<br>
Height : 858 pixels<br>
Display aspect ratio : 2.39:1<br>
Frame rate mode : Constant<br>
Frame rate : 23.976 (24000/1001) FPS<br>
Color space : YUV<br>
Chroma subsampling : 4:2:2<br>
Scan type : Progressive<br>
Bits/(Pixel*Frame) : 4.143<br>
Stream size : 4.17 GiB (99%)<br>
Writing library : Apple<br>
Language : English<br>
Encoded date : 2019-11-16 19:25:28 UTC<br>
Tagged date : 2019-11-16 19:25:28 UTC<br>
Color primaries : BT.709<br>
Transfer characteristics : BT.709<br>
Matrix coefficients : BT.709<br>
Menus : 0<br>
<br>
<b>Audio</b><br>
ID : 2<br>
Format : PCM<br>
Format settings : Little / Signed<br>
Codec ID : sowt<br>
Duration : 3 min 25 s<br>
Bit rate mode : Constant<br>
Bit rate : 1 536 kb/s<br>
Channel(s) : 2 channels<br>
Channel layout : L R<br>
Sampling rate : 48.0 kHz<br>
Bit depth : 16 bits<br>
Stream size : 37.6 MiB (1%)<br>
Language : English<br>
Encoded date : 2019-11-16 19:25:28 UTC<br>
Tagged date : 2019-11-16 19:25:28 UTC<br>
Menus : 0<br>
<br>
<b>Other</b><br>
ID : 3<br>
Type : Time code<br>
Format : QuickTime TC<br>
Duration : 3 min 25 s<br>
Frame rate : 23.976 (24000/1001) FPS<br>
Time code of first frame : 00:00:00:00<br>
Time code of last frame : 00:03:25:02<br>
Time code, stripped : Yes<br>
Language : English<br>
Encoded date : 2019-11-16 19:25:28 UTC<br>
Tagged date : 2019-11-16 19:25:28 UTC</div>
</div><br>
<div class="bbCodeBlock bbCodeVfcHH HiddenContent">
<div class="attribution type">Hidden Content:</div>
<blockquote>You must reply before you can see the hidden data contained here.</blockquote>
</div></div>
<div class="messageTextEndMarker">&nbsp;</div>
</blockquote>
</article>]]></description>
                <author><![CDATA[von_3649]]></author>
                </item>

                
                <item>
                <title><![CDATA[【PRORES HD】aespa Better Things MASTER ProRes 2160p PCM2.0]]></title>
                <link><![CDATA[https://sharemania.us/threads/aespa-better-things-master-prores-2160p-pcm2-0.243632/]]></link>
                <description><![CDATA[<article>
<blockquote class="messageText SelectQuoteContainer ugc baseHtml">
<div style="text-align: center"><img src="https://i.ibb.co/1vJr8vp/aespa-Better-Things-MASTER-Pro-Res-2160p-PCM2-0-mov.jpg" class="bbCodeImage LbImage" alt="[​IMG]" data-url="https://i.ibb.co/1vJr8vp/aespa-Better-Things-MASTER-Pro-Res-2160p-PCM2-0-mov.jpg" style=""> <br>
<br>
<div class="ToggleTriggerAnchor bbCodeSpoilerContainer">
<button type="button" class="button bbCodeSpoilerButton ToggleTrigger Tooltip JsOnly" data-target="> .SpoilerTarget"><span>Spoiler: <span class="SpoilerTitle">MediaInfo</span></span></button>
<div class="SpoilerTarget bbCodeSpoilerText"><b>General</b><br>
Complete name : aespa Better Things MASTER ProRes 2160p PCM2.0.mov<br>
Format : MPEG-4<br>
Format profile : QuickTime<br>
Codec ID : qt 2005.03 (qt )<br>
File size : 20.3 GiB<br>
Duration : 3 min 57 s<br>
Overall bit rate mode : Variable<br>
Overall bit rate : 734 Mb/s<br>
Frame rate : 24.000 FPS<br>
Encoded date : 2023-08-14 16:53:25 UTC<br>
Tagged date : 2023-08-14 16:55:43 UTC<br>
Writing library : Apple QuickTime<br>
TIM : 00:00:03:16<br>
TSC : 24<br>
TSZ : 1<br>
<br>
<b>Video</b><br>
ID : 1<br>
Format : ProRes<br>
Format version : Version 0<br>
Format profile : 422 HQ<br>
Codec ID : apch<br>
Duration : 3 min 57 s<br>
Bit rate mode : Variable<br>
Bit rate : 732 Mb/s<br>
Width : 3 840 pixels<br>
Height : 2 160 pixels<br>
Display aspect ratio : 16:9<br>
Frame rate mode : Constant<br>
Frame rate : 24.000 FPS<br>
Color space : YUV<br>
Chroma subsampling : 4:2:2<br>
Scan type : Progressive<br>
Bits/(Pixel*Frame) : 3.678<br>
Stream size : 20.3 GiB (100%)<br>
Writing library : Apple<br>
Language : English<br>
Encoded date : 2023-08-14 16:53:25 UTC<br>
Tagged date : 2023-08-14 16:53:25 UTC<br>
Color primaries : BT.709<br>
Transfer characteristics : BT.709<br>
Matrix coefficients : BT.709<br>
<br>
<b>Audio</b><br>
ID : 2<br>
Format : PCM<br>
Format settings : Little / Signed<br>
Codec ID : sowt<br>
Duration : 3 min 57 s<br>
Bit rate mode : Constant<br>
Bit rate : 1 536 kb/s<br>
Channel(s) : 2 channels<br>
Channel layout : L R<br>
Sampling rate : 48.0 kHz<br>
Bit depth : 16 bits<br>
Stream size : 43.6 MiB (0%)<br>
Language : English<br>
Encoded date : 2023-08-14 16:53:25 UTC<br>
Tagged date : 2023-08-14 16:53:25 UTC<br>
<br>
<b>Other</b><br>
ID : 3<br>
Type : Time code<br>
Format : QuickTime TC<br>
Duration : 3 min 57 s<br>
Frame rate : 24.000 FPS<br>
Time code of first frame : 00:00:03:16<br>
Time code of last frame : 00:04:01:13<br>
Time code, stripped : Yes<br>
Language : English<br>
Encoded date : 2023-08-14 16:53:25 UTC<br>
Tagged date : 2023-08-14 16:53:25 UTC</div>
</div><br>
<div class="bbCodeBlock bbCodeVfcHH HiddenContent">
<div class="attribution type">Hidden Content:</div>
<blockquote>You must reply before you can see the hidden data contained here.</blockquote>
</div></div>
<div class="messageTextEndMarker">&nbsp;</div>
</blockquote>
</article>]]></description>
                <author><![CDATA[von_3649]]></author>
                </item>

                </channel></rss>